<svg xmlns="http://www.w3.org/2000/svg" baseProfile="tiny" height="216" width="602.3" viewBox="0 0 602.3 216"><path fill="#e6e6e6" d="M179.1 0H36.9C16.5 0 0 16.5 0 36.9V179c0 20.5 16.5 37 36.9 37H179c20.4 0 36.9-16.5 36.9-36.9V36.9C216 16.5 199.5 0 179.1 0zM195 151.4c0 16.3-13.2 29.6-29.6 29.6H50.6C34.2 181 21 167.8 21 151.4V36.6C21 20.2 34.2 7 50.6 7h114.8C181.8 7 195 20.2 195 36.6v114.8z"/><path fill="#ff863b" d="M148.7 45.7c11.1 10.1 16.6 25.1 16.6 44.7 0 19.8-5.5 34.7-16.6 44.6-11 10-27.6 15-49.5 15H57.1V30.5h42.1c21.9 0 38.4 5.1 49.5 15.2zM127.4 63c-6.1-5.7-15.5-8.5-28.2-8.5H85.5v71.6h13.7c12.9 0 22.4-2.9 28.4-8.6s9-14.9 9-27.5c0-12.3-3.1-21.3-9.2-27z"/><path d="M270.6 134.8a43.5 43.5 0 0 0 11.4-1.5c3.7-1 8-2.7 12.7-4.9l6.3 18.4c-5.2 2.9-10.4 4.9-15.6 6.1s-11.1 1.8-17.9 1.8c-9.8 0-18.2-1.9-25.2-5.8-7-3.8-12.2-9.2-15.8-16.1s-5.4-14.9-5.4-24c0-9.6 1.8-17.9 5.5-24.7 3.7-6.9 8.7-12.1 15.1-15.6 6.3-3.5 13.4-5.3 21.2-5.3 12.4 0 22.1 3.6 29.1 10.9S302.5 92 302.5 106v9.4h-56.2c1.9 12.9 10 19.4 24.3 19.4zm-18.2-48.6c-2.7 2.3-4.6 5.9-5.6 11.1h31c-.5-5-2-8.7-4.5-11s-5.9-3.5-10.4-3.5c-4.2.1-7.8 1.2-10.5 3.4zm87.1-43c-1.2 1.4-1.8 3.9-1.8 7.5v14.9h16.9v21.2h-16.9V152H314V86.7h-10.4V65.5H314v-23c0-15 8.5-22.4 25.7-22.4 4 0 9 .6 14.9 1.8v20.4c-2.7-.8-5.6-1.2-8.8-1.2-3 0-5.2.7-6.3 2.1zm53.7 64.5l-5.8 6.5V152H363V35.6h24.4v44.1l39.3-44.1h30.4L409 89.9l48.8 62.1h-30.7l-33.9-44.3zm99.6 27.1a43.5 43.5 0 0 0 11.4-1.5c3.7-1 8-2.7 12.7-4.9l6.3 18.4c-5.2 2.9-10.4 4.9-15.6 6.1s-11.1 1.8-17.9 1.8c-9.8 0-18.2-1.9-25.2-5.8-7-3.8-12.2-9.2-15.8-16.1s-5.4-14.9-5.4-24c0-9.6 1.8-17.9 5.5-24.7 3.7-6.9 8.7-12.1 15.1-15.6 6.3-3.5 13.4-5.3 21.2-5.3 12.4 0 22.1 3.6 29.1 10.9S524.7 92 524.7 106v9.4h-56.2c1.9 12.9 10 19.4 24.3 19.4zm-18.2-48.6c-2.7 2.3-4.6 5.9-5.6 11.1h31c-.5-5-2-8.7-4.5-11s-5.9-3.5-10.4-3.5c-4.3.1-7.8 1.2-10.5 3.4zm127.7-20.7L567 165.7c-2.3 6.5-4.8 11.5-7.7 15.1s-6.2 6.1-10 7.6-8.5 2.2-14.1 2.2c-4.9 0-9.4-.7-13.4-2v-20.3a37.28 37.28 0 0 0 9.4 1.2c4 0 7.2-.8 9.6-2.5 2.4-1.6 4.4-4.8 6.1-9.5l1.8-5.4-30.1-86.6h24.3l17.4 53.9 19-53.9h23z" fill="#e6e6e6"/></svg>